<?xml version="1.0" encoding="UTF-8"?>
<svg version="1.1" xmlns="http://www.w3.org/2000/svg" width="512" height="512">
<path d="M0 0 C3.12578143 1.6720747 5.39281175 3.7856235 7 7 C7.084915 8.8863912 7.107193 10.77578515 7.09765625 12.6640625 C7.09515869 13.6742041 7.09266113 14.6843457 7.09008789 15.72509766 C7.08098389 17.01206543 7.07187988 18.2990332 7.0625 19.625 C7.041875 23.70875 7.02125 27.7925 7 32 C17.56 32 28.12 32 39 32 C38.80293701 24.04184934 38.80293701 24.04184934 38.54956055 16.08544922 C38.43480573 6.89469887 38.43480573 6.89469887 41.39453125 3.2578125 C45.46089245 -0.26596078 48.1924869 -0.38980471 53.44921875 -0.359375 C57.55868504 0.21960034 59.21349577 1.99914929 62 5 C66.02768199 13.05536398 63 22.99382928 63 32 C99.96 32 136.92 32 175 32 C175 23.75 175 15.5 175 7 C180.69658406 0.16409913 180.69658406 0.16409913 184.171875 -0.2734375 C191.98876369 -0.58137554 191.98876369 -0.58137554 195.5625 2.375 C199.00359072 6.08079001 199.12265791 7.71373463 199.09765625 12.6640625 C199.09515869 13.6742041 199.09266113 14.6843457 199.09008789 15.72509766 C199.08098389 17.01206543 199.07187988 18.2990332 199.0625 19.625 C199.041875 23.70875 199.02125 27.7925 199 32 C209.56 32 220.12 32 231 32 C230.80293701 24.04184934 230.80293701 24.04184934 230.54956055 16.08544922 C230.43480573 6.89469887 230.43480573 6.89469887 233.39453125 3.2578125 C237.46089245 -0.26596078 240.1924869 -0.38980471 245.44921875 -0.359375 C249.55868504 0.21960034 251.21349577 1.99914929 254 5 C255.3308911 7.66178221 255.11268993 9.68739396 255.09765625 12.6640625 C255.09443359 13.78554688 255.09121094 14.90703125 255.08789062 16.0625 C255.07951172 17.238125 255.07113281 18.41375 255.0625 19.625 C255.05798828 20.80835937 255.05347656 21.99171875 255.04882812 23.2109375 C255.03701467 26.14067507 255.02054258 29.07031272 255 32 C255.58491211 31.97905273 256.16982422 31.95810547 256.77246094 31.93652344 C259.43146465 31.85319885 262.09019355 31.80129103 264.75 31.75 C265.67039062 31.71648438 266.59078125 31.68296875 267.5390625 31.6484375 C268.42851562 31.63554688 269.31796875 31.62265625 270.234375 31.609375 C271.05131836 31.58842773 271.86826172 31.56748047 272.70996094 31.54589844 C276.06642008 32.21146496 276.97868102 33.21366923 279 36 C279.61346666 39.36768692 279.54611818 42.70874049 279.51898193 46.12384033 C279.53023381 47.68480033 279.53023381 47.68480033 279.541713 49.27729487 C279.5620634 52.77523316 279.55387279 56.27252778 279.54589844 59.77050781 C279.55462941 62.27353561 279.56511352 64.77655781 279.57722473 67.27957153 C279.59937082 72.67399539 279.60928461 78.06823066 279.60811615 83.46268463 C279.60644783 91.26212522 279.62677213 99.06138638 279.65247145 106.86077914 C279.69356873 119.51459922 279.71686948 132.16838707 279.72900391 144.82226562 C279.7408297 157.11461487 279.76102119 169.40690339 279.79248047 181.69921875 C279.79441657 182.45686473 279.79635267 183.21451072 279.79834744 183.99511567 C279.80811192 187.79598759 279.81804105 191.59685907 279.82805204 195.39773035 C279.91089557 226.93179413 279.96457168 258.46584561 280 290 C281.21115479 288.78098999 281.21115479 288.78098999 282.44677734 287.53735352 C285.43725028 284.52880861 288.4310085 281.52355141 291.42578125 278.51928711 C292.72258213 277.21745106 294.01848492 275.91471977 295.31347656 274.61108398 C297.17278598 272.73967339 299.0352794 270.87148418 300.8984375 269.00390625 C301.47870697 268.41847549 302.05897644 267.83304474 302.65682983 267.22987366 C307.67381225 262.21219004 307.67381225 262.21219004 312.125 261.5 C316.1868551 262.02411034 316.80291524 262.34420905 319.65234375 264.94921875 C320.3484375 265.58456543 321.04453125 266.21991211 321.76171875 266.87451172 C325.71434242 270.62795213 329.592732 274.4488388 333.4375 278.3125 C334.25154297 279.12267578 335.06558594 279.93285156 335.90429688 280.76757812 C336.67708984 281.54166016 337.44988281 282.31574219 338.24609375 283.11328125 C338.94404053 283.81235596 339.6419873 284.51143066 340.36108398 285.23168945 C343.09724127 288.18386988 343.54082207 290.78205203 343.4515686 294.81147766 C341.99294783 301.88066744 333.76620843 306.90891633 328.4169178 311.00585079 C294.10059376 336.87363988 294.10059376 336.87363988 276.95151329 374.49512386 C274.84037186 393.58770983 276.02850555 413.27432325 278.17617798 432.32286072 C278.25659521 433.08417392 278.33701244 433.84548712 278.41986656 434.62987041 C278.641471 436.67035589 278.89076135 438.70778163 279.14215088 440.74481201 C279 444 279 444 277.59498692 446.14688969 C273.69436363 448.93237011 270.03446802 448.74674248 265.33805847 448.904953 C264.34595267 448.95282135 263.35384687 449.00068969 262.33167726 449.05000859 C258.99535315 449.20450619 255.65862927 449.32976465 252.32104492 449.45385742 C249.93006021 449.5558677 247.53911029 449.65869653 245.14819336 449.76228333 C223.10027751 450.67950745 201.03693588 451.1873754 178.97432995 451.59269238 C176.00475739 451.64824067 173.03520757 451.70486571 170.06567383 451.76245117 C169.32783585 451.77671472 168.58999788 451.79097827 167.82980118 451.80567405 C156.02450793 452.04066436 144.24081797 452.51016726 132.44731589 453.07716819 C120.24248153 453.65885474 108.04850687 453.98373162 95.83023149 454.09025651 C88.99796603 454.15635832 82.21202393 454.3281205 75.39330101 454.78325462 C42.94902358 456.84923492 20.06012371 450.33539333 -4.3921032 429.21006966 C-28.90403594 407.34654024 -45.95857797 384.45907461 -48.00075722 350.97083664 C-48.63318002 337.64536015 -48.29062621 324.37492062 -47.64998486 311.05753378 C-47.2031097 301.50998556 -47.13199545 291.96817929 -47.07179264 282.41167828 C-46.95487438 265.38396556 -46.55731567 248.37576065 -45.97241211 231.3581543 C-45.40694989 214.88934084 -44.99175428 198.42700052 -44.76245117 181.94995117 C-44.7481612 180.92630291 -44.73387124 179.90265464 -44.71914824 178.84798674 C-44.66227539 174.73179488 -44.60644355 170.61559074 -44.55198539 166.49936621 C-44.13594056 135.14015407 -43.58146962 103.78124615 -42.60491371 72.43405151 C-42.50327916 69.1671984 -42.41010981 65.90028732 -42.32469177 62.63297081 C-42.22575167 58.87880755 -42.10789686 55.12574115 -41.97419421 51.37265917 C-41.90700913 49.36782848 -41.8582319 47.36240728 -41.81003731 45.35703021 C-41.76322109 44.17221299 -41.71640487 42.98739577 -41.66816998 41.766675 C-41.63553828 40.74216529 -41.60290658 39.71765559 -41.56928605 38.66210014 C-40.8563139 35.32809389 -39.64048887 34.09589338 -37 32 C-34.70996094 31.54589844 -34.70996094 31.54589844 -32.234375 31.609375 C-30.90019531 31.62871094 -30.90019531 31.62871094 -29.5390625 31.6484375 C-28.15847656 31.69871094 -28.15847656 31.69871094 -26.75 31.75 C-25.81414062 31.76804687 -24.87828125 31.78609375 -23.9140625 31.8046875 C-21.60832985 31.85174327 -19.30469055 31.91746287 -17 32 C-17.03927612 30.91114502 -17.03927612 30.91114502 -17.0793457 29.80029297 C-17.1836681 26.49208459 -17.24843872 23.1842228 -17.3125 19.875 C-17.35439453 18.73289062 -17.39628906 17.59078125 -17.43945312 16.4140625 C-17.5775945 6.90993617 -17.5775945 6.90993617 -14.60546875 3.2578125 C-10.05732161 -0.68346043 -5.87172261 -0.82725648 0 0 Z " fill="#EFEFEF" transform="translate(105,32)"/>
<path d="M0 0 C3.12578143 1.6720747 5.39281175 3.7856235 7 7 C7.084915 8.8863912 7.107193 10.77578515 7.09765625 12.6640625 C7.09515869 13.6742041 7.09266113 14.6843457 7.09008789 15.72509766 C7.08098389 17.01206543 7.07187988 18.2990332 7.0625 19.625 C7.041875 23.70875 7.02125 27.7925 7 32 C17.56 32 28.12 32 39 32 C38.80293701 24.04184934 38.80293701 24.04184934 38.54956055 16.08544922 C38.43480573 6.89469887 38.43480573 6.89469887 41.39453125 3.2578125 C45.46089245 -0.26596078 48.1924869 -0.38980471 53.44921875 -0.359375 C57.55868504 0.21960034 59.21349577 1.99914929 62 5 C66.02768199 13.05536398 63 22.99382928 63 32 C99.96 32 136.92 32 175 32 C175 23.75 175 15.5 175 7 C180.69658406 0.16409913 180.69658406 0.16409913 184.171875 -0.2734375 C191.98876369 -0.58137554 191.98876369 -0.58137554 195.5625 2.375 C199.00359072 6.08079001 199.12265791 7.71373463 199.09765625 12.6640625 C199.09515869 13.6742041 199.09266113 14.6843457 199.09008789 15.72509766 C199.08098389 17.01206543 199.07187988 18.2990332 199.0625 19.625 C199.041875 23.70875 199.02125 27.7925 199 32 C209.56 32 220.12 32 231 32 C230.80293701 24.04184934 230.80293701 24.04184934 230.54956055 16.08544922 C230.43480573 6.89469887 230.43480573 6.89469887 233.39453125 3.2578125 C237.46089245 -0.26596078 240.1924869 -0.38980471 245.44921875 -0.359375 C249.55868504 0.21960034 251.21349577 1.99914929 254 5 C255.3308911 7.66178221 255.11268993 9.68739396 255.09765625 12.6640625 C255.09443359 13.78554688 255.09121094 14.90703125 255.08789062 16.0625 C255.07951172 17.238125 255.07113281 18.41375 255.0625 19.625 C255.05798828 20.80835937 255.05347656 21.99171875 255.04882812 23.2109375 C255.03701467 26.14067507 255.02054258 29.07031272 255 32 C255.58491211 31.97905273 256.16982422 31.95810547 256.77246094 31.93652344 C259.43146465 31.85319885 262.09019355 31.80129103 264.75 31.75 C265.67039062 31.71648438 266.59078125 31.68296875 267.5390625 31.6484375 C268.42851562 31.63554688 269.31796875 31.62265625 270.234375 31.609375 C271.05131836 31.58842773 271.86826172 31.56748047 272.70996094 31.54589844 C275 32 275 32 279 36 C279 53.16 279 70.32 279 88 C173.4 88 67.8 88 -41 88 C-41 36 -41 36 -37 32 C-34.70996094 31.54589844 -34.70996094 31.54589844 -32.234375 31.609375 C-30.90019531 31.62871094 -30.90019531 31.62871094 -29.5390625 31.6484375 C-28.15847656 31.69871094 -28.15847656 31.69871094 -26.75 31.75 C-25.81414062 31.76804687 -24.87828125 31.78609375 -23.9140625 31.8046875 C-21.60832985 31.85174327 -19.30469055 31.91746287 -17 32 C-17.03927612 30.91114502 -17.03927612 30.91114502 -17.0793457 29.80029297 C-17.1836681 26.49208459 -17.24843872 23.1842228 -17.3125 19.875 C-17.35439453 18.73289062 -17.39628906 17.59078125 -17.43945312 16.4140625 C-17.5775945 6.90993617 -17.5775945 6.90993617 -14.60546875 3.2578125 C-10.05732161 -0.68346043 -5.87172261 -0.82725648 0 0 Z " fill="#009FC7" transform="translate(105,32)"/>
<path d="M0 0 C1.79663086 1.25268555 1.79663086 1.25268555 3.65234375 2.94921875 C4.3484375 3.58456543 5.04453125 4.21991211 5.76171875 4.87451172 C9.71434242 8.62795213 13.592732 12.4488388 17.4375 16.3125 C18.25154297 17.12267578 19.06558594 17.93285156 19.90429688 18.76757812 C21.06348633 19.92870117 21.06348633 19.92870117 22.24609375 21.11328125 C22.94404053 21.81235596 23.6419873 22.51143066 24.36108398 23.23168945 C27.10030038 26.18717051 27.53966947 28.78909775 27.45252991 32.82191467 C26.90660755 35.44951001 26.06919956 36.50528947 24.25952148 38.47436523 C23.61997528 39.17028778 22.98042908 39.86621033 22.32150269 40.58322144 C17.39283358 45.71416611 12.38314364 50.75948959 7.34765625 55.78515625 C6.12114646 57.01234122 4.89478502 58.23967447 3.66856384 59.46714783 C1.10919472 62.02798381 -1.45195493 64.58702171 -4.0144043 67.14477539 C-7.28010508 70.40477954 -10.54129475 73.66925365 -13.80115414 76.93509769 C-16.32938627 79.46696285 -18.86001939 81.99641744 -21.39135933 84.52517509 C-22.59403192 85.72718599 -23.79597709 86.92992519 -24.9971447 88.13344002 C-30.59389434 93.73872742 -36.18502722 99.2890987 -42.2124176 104.43702698 C-45.40120786 107.22514637 -48.36238917 110.23970922 -51.34375 113.24609375 C-52.32559265 114.23005882 -52.32559265 114.23005882 -53.32727051 115.23390198 C-55.38723823 117.29940145 -57.44367366 119.36837595 -59.5 121.4375 C-60.9086205 122.85114434 -62.31747267 124.26455786 -63.7265625 125.67773438 C-67.15372133 129.11583149 -70.57772019 132.55704656 -74 136 C-77.49929198 134.35556658 -79.73398393 132.47535453 -82.4375 129.6875 C-83.22511719 128.883125 -84.01273437 128.07875 -84.82421875 127.25 C-85.54222656 126.5075 -86.26023437 125.765 -87 125 C-89.39399328 122.55159778 -91.65504555 120.26325471 -94.375 118.1875 C-99.96028307 113.53309744 -104.3592661 107.57097111 -109 102 C-108.12605087 101.12827148 -107.25210175 100.25654297 -106.35166931 99.35839844 C-98.09544767 91.12249314 -89.84190172 82.8839147 -81.5909338 74.64274597 C-77.34947038 70.40648984 -73.10708649 66.17116433 -68.86254883 61.93798828 C-64.7625066 57.84885167 -60.66494805 53.75724111 -56.56906319 49.66394043 C-55.0099369 48.10665459 -53.44993416 46.5502457 -51.88902092 44.99475098 C-49.69440319 42.80744562 -47.50298935 40.61697602 -45.31225586 38.42578125 C-44.67352036 37.79064102 -44.03478485 37.15550079 -43.37669373 36.50111389 C-39.60507637 32.7209554 -36.02630815 28.82356331 -32.54590416 24.77329922 C-30.32065899 22.2207312 -27.967525 19.8378072 -25.57421875 17.44140625 C-25.10055374 16.96678452 -24.62688873 16.49216278 -24.13887024 16.00315857 C-23.15459654 15.01821364 -22.16909653 14.03449266 -21.18237305 13.05200195 C-19.66921334 11.54427904 -18.16157115 10.03118241 -16.65429688 8.51757812 C-15.69042526 7.55436608 -14.72624416 6.5914636 -13.76171875 5.62890625 C-12.4617395 4.3306189 -12.4617395 4.3306189 -11.13549805 3.00610352 C-7.48936606 -0.4191013 -4.97148447 -0.64148187 0 0 Z " fill="#019FC6" transform="translate(421,294)"/>
<path d="M0 0 C0.67453043 -0.00638882 1.34906087 -0.01277764 2.04403162 -0.01936007 C4.29766372 -0.03458527 6.54953056 -0.01416828 8.80310059 0.00622559 C10.42132652 0.0027236 12.039549 -0.00293586 13.65776062 -0.0105896 C18.04838486 -0.02483627 22.43838272 -0.00777747 26.82894707 0.01569557 C31.42437378 0.03580428 36.01977448 0.029925 40.61523438 0.02758789 C48.33242115 0.02764146 56.04936309 0.04739822 63.76647949 0.07946777 C72.68759387 0.11636058 81.6083875 0.12514332 90.5295682 0.11817026 C99.11262625 0.11186423 107.69557436 0.12262141 116.27861023 0.14213562 C119.93081733 0.15030875 123.58296823 0.15301933 127.23518372 0.15144348 C131.53625924 0.1505643 135.83703013 0.16478968 140.13802528 0.19067001 C141.71622046 0.19782995 143.29444804 0.19991626 144.87265587 0.19655228 C147.02765731 0.19283514 149.18177086 0.20759174 151.33666992 0.22705078 C153.14516544 0.23264385 153.14516544 0.23264385 154.99019623 0.23834991 C158.47968144 0.65899135 160.37295768 1.52661727 163.16833496 3.62145996 C164.57291233 6.4306147 164.41728653 8.5095653 164.16833496 11.62145996 C162.38849091 14.75737566 161.64525289 15.46248732 158.16833496 16.62145996 C155.9730797 16.72404425 153.77480639 16.76521869 151.57717896 16.77536011 C150.90435737 16.77974236 150.23153579 16.78412462 149.53832567 16.78863966 C147.27908764 16.80201667 145.01988861 16.80820397 142.76062012 16.81433105 C141.14269332 16.82223272 139.52476828 16.83050171 137.90684509 16.83911133 C132.59037964 16.86531812 127.27390636 16.88063495 121.95739746 16.89489746 C120.12771983 16.90025719 118.29804225 16.9056347 116.46836472 16.91102982 C108.85925542 16.93265418 101.25014825 16.95139223 93.64101601 16.96265221 C82.73178044 16.97890168 71.82290044 17.01210862 60.91379893 17.06905305 C53.24493387 17.10772157 45.57616404 17.12728107 37.90720403 17.13257277 C33.32551335 17.13622971 28.74420202 17.14828759 24.16261673 17.18067551 C19.85331237 17.21070295 15.54461799 17.21708726 11.2352314 17.20529175 C9.65377468 17.20507058 8.07229008 17.21341129 6.49093056 17.23094559 C4.33103645 17.25359126 2.17336314 17.24536739 0.01345825 17.22946167 C-1.19480307 17.23277182 -2.40306438 17.23608196 -3.64793968 17.23949242 C-7.76363251 16.44054419 -9.25238403 14.85832424 -11.83166504 11.62145996 C-12.45666504 8.62145996 -12.45666504 8.62145996 -11.83166504 5.62145996 C-8.15131482 1.00611587 -5.84732703 -0.00345559 0 0 Z " fill="#0A5078" transform="translate(187.8316650390625,279.3785400390625)"/>
<path d="M0 0 C0.67453043 -0.00638882 1.34906087 -0.01277764 2.04403162 -0.01936007 C4.29766372 -0.03458527 6.54953056 -0.01416828 8.80310059 0.00622559 C10.42132652 0.0027236 12.039549 -0.00293586 13.65776062 -0.0105896 C18.04838486 -0.02483627 22.43838272 -0.00777747 26.82894707 0.01569557 C31.42437378 0.03580428 36.01977448 0.029925 40.61523438 0.02758789 C48.33242115 0.02764146 56.04936309 0.04739822 63.76647949 0.07946777 C72.68759387 0.11636058 81.6083875 0.12514332 90.5295682 0.11817026 C99.11262625 0.11186423 107.69557436 0.12262141 116.27861023 0.14213562 C119.93081733 0.15030875 123.58296823 0.15301933 127.23518372 0.15144348 C131.53625924 0.1505643 135.83703013 0.16478968 140.13802528 0.19067001 C141.71622046 0.19782995 143.29444804 0.19991626 144.87265587 0.19655228 C147.02765731 0.19283514 149.18177086 0.20759174 151.33666992 0.22705078 C153.14516544 0.23264385 153.14516544 0.23264385 154.99019623 0.23834991 C158.47968144 0.65899135 160.37295768 1.52661727 163.16833496 3.62145996 C164.57291233 6.4306147 164.41728653 8.5095653 164.16833496 11.62145996 C162.38849091 14.75737566 161.64525289 15.46248732 158.16833496 16.62145996 C155.9730797 16.72404425 153.77480639 16.76521869 151.57717896 16.77536011 C150.90435737 16.77974236 150.23153579 16.78412462 149.53832567 16.78863966 C147.27908764 16.80201667 145.01988861 16.80820397 142.76062012 16.81433105 C141.14269332 16.82223272 139.52476828 16.83050171 137.90684509 16.83911133 C132.59037964 16.86531812 127.27390636 16.88063495 121.95739746 16.89489746 C120.12771983 16.90025719 118.29804225 16.9056347 116.46836472 16.91102982 C108.85925542 16.93265418 101.25014825 16.95139223 93.64101601 16.96265221 C82.73178044 16.97890168 71.82290044 17.01210862 60.91379893 17.06905305 C53.24493387 17.10772157 45.57616404 17.12728107 37.90720403 17.13257277 C33.32551335 17.13622971 28.74420202 17.14828759 24.16261673 17.18067551 C19.85331237 17.21070295 15.54461799 17.21708726 11.2352314 17.20529175 C9.65377468 17.20507058 8.07229008 17.21341129 6.49093056 17.23094559 C4.33103645 17.25359126 2.17336314 17.24536739 0.01345825 17.22946167 C-1.19480307 17.23277182 -2.40306438 17.23608196 -3.64793968 17.23949242 C-7.76363251 16.44054419 -9.25238403 14.85832424 -11.83166504 11.62145996 C-12.45666504 8.62145996 -12.45666504 8.62145996 -11.83166504 5.62145996 C-8.15131482 1.00611587 -5.84732703 -0.00345559 0 0 Z " fill="#0A5078" transform="translate(187.8316650390625,199.3785400390625)"/>
<path d="M0 0 C3.21142855 2.37366458 4.71584605 3.93442268 5.75 7.8125 C4.45572235 13.31318 0.31044332 17.12415278 -4.0065918 20.62915039 C-7.20543918 23.39844539 -9.62759188 25.53197932 -10.68994141 29.71972656 C-10.90139816 32.73462541 -10.91105496 35.66708031 -10.8125 38.6875 C-10.64516495 51.28543904 -10.64516495 51.28543904 -14 55 C-17.7696881 56.2565627 -21.31717743 56.18175362 -25.24609375 56.203125 C-26.45737694 56.21167511 -26.45737694 56.21167511 -27.69313049 56.22039795 C-29.40030612 56.22983834 -31.10749989 56.23637812 -32.81469727 56.24023438 C-35.42431375 56.2499509 -38.03314607 56.2809869 -40.64257812 56.3125 C-42.30207866 56.31902933 -43.96158482 56.32428007 -45.62109375 56.328125 C-46.40036728 56.3404718 -47.17964081 56.3528186 -47.98252869 56.36553955 C-51.22277164 56.35223287 -53.58383795 56.22539875 -56.46118164 54.66699219 C-60.91417454 49.84309317 -59.3065461 40.47870058 -59.35009766 34.24023438 C-59.36666642 32.50018955 -59.39396889 30.76021305 -59.43212891 29.02050781 C-59.48696881 26.50550214 -59.5087786 23.99208593 -59.5234375 21.4765625 C-59.54610687 20.70245026 -59.56877625 19.92833801 -59.59213257 19.13076782 C-59.57729867 15.32757752 -59.11967129 13.18180377 -57.015625 9.98535156 C-52.90856751 7.28145005 -50.01895209 7.47355934 -45.2265625 7.7578125 C-43.49740835 7.80643688 -41.76824117 7.85459961 -40.0390625 7.90234375 C-37.33070575 8.00787052 -34.6233871 8.12507646 -31.91601562 8.25341797 C-21.76527979 9.1429657 -21.76527979 9.1429657 -12.28417969 6.46777344 C-10.57145356 4.73021233 -9.30645983 3.04738193 -8 1 C-5.11138291 -0.44430855 -3.20352299 -0.37688506 0 0 Z " fill="#D1D1D1" transform="translate(155,160)"/>
<path d="M0 0 C0.80232056 -0.00004028 1.60464111 -0.00008057 2.43127441 -0.00012207 C4.12239443 0.00522359 5.8135146 0.02276578 7.50439453 0.05175781 C10.08573724 0.09362006 12.66446867 0.09282315 15.24609375 0.0859375 C16.89324721 0.09643096 18.54038728 0.10936992 20.1875 0.125 C21.3392572 0.12530212 21.3392572 0.12530212 22.51428223 0.12561035 C27.02599744 0.22473308 30.01087988 0.78722566 33.59375 3.59375 C35.18381531 6.77388063 34.77792077 10.21345657 34.796875 13.70703125 C34.80257507 14.51359665 34.80827515 15.32016205 34.81414795 16.15116882 C34.82360195 17.86012458 34.83013352 19.5690986 34.83398438 21.27807617 C34.8436732 23.88558041 34.874685 26.49229078 34.90625 29.09960938 C34.91278185 30.76041199 34.91803161 32.42122024 34.921875 34.08203125 C34.9342218 34.85928055 34.9465686 35.63652985 34.95928955 36.43733215 C34.94069428 40.98490483 34.51725081 44.03271364 31.59375 47.59375 C27.8240619 48.8503127 24.27657257 48.77550362 20.34765625 48.796875 C19.13637306 48.80542511 19.13637306 48.80542511 17.90061951 48.81414795 C16.19344388 48.82358834 14.48625011 48.83012812 12.77905273 48.83398438 C10.16943625 48.8437009 7.56060393 48.8747369 4.95117188 48.90625 C3.29167134 48.91277933 1.63216518 48.91803007 -0.02734375 48.921875 C-0.80661728 48.9342218 -1.58589081 48.9465686 -2.38877869 48.95928955 C-5.62902164 48.94598287 -7.99008795 48.81914875 -10.86743164 47.26074219 C-15.32042454 42.43684317 -13.7127961 33.07245058 -13.75634766 26.83398438 C-13.77291642 25.09393955 -13.80021889 23.35396305 -13.83837891 21.61425781 C-13.89321881 19.09925214 -13.9150286 16.58583593 -13.9296875 14.0703125 C-13.95235687 13.29620026 -13.97502625 12.52208801 -13.99838257 11.72451782 C-13.98351021 7.91146608 -13.53704249 5.78874566 -11.39892578 2.60107422 C-7.57414985 0.03562245 -4.45403041 -0.09510468 0 0 Z " fill="#D2D2D2" transform="translate(109.40625,327.40625)"/>
<path d="M0 0 C0.80232056 -0.00004028 1.60464111 -0.00008057 2.43127441 -0.00012207 C4.12239443 0.00522359 5.8135146 0.02276578 7.50439453 0.05175781 C10.08573724 0.09362006 12.66446867 0.09282315 15.24609375 0.0859375 C16.89324721 0.09643096 18.54038728 0.10936992 20.1875 0.125 C21.3392572 0.12530212 21.3392572 0.12530212 22.51428223 0.12561035 C27.02599744 0.22473308 30.01087988 0.78722566 33.59375 3.59375 C35.18381531 6.77388063 34.77792077 10.21345657 34.796875 13.70703125 C34.80257507 14.51359665 34.80827515 15.32016205 34.81414795 16.15116882 C34.82360195 17.86012458 34.83013352 19.5690986 34.83398438 21.27807617 C34.8436732 23.88558041 34.874685 26.49229078 34.90625 29.09960938 C34.91278185 30.76041199 34.91803161 32.42122024 34.921875 34.08203125 C34.9342218 34.85928055 34.9465686 35.63652985 34.95928955 36.43733215 C34.94069428 40.98490483 34.51725081 44.03271364 31.59375 47.59375 C27.8240619 48.8503127 24.27657257 48.77550362 20.34765625 48.796875 C19.13637306 48.80542511 19.13637306 48.80542511 17.90061951 48.81414795 C16.19344388 48.82358834 14.48625011 48.83012812 12.77905273 48.83398438 C10.16943625 48.8437009 7.56060393 48.8747369 4.95117188 48.90625 C3.29167134 48.91277933 1.63216518 48.91803007 -0.02734375 48.921875 C-0.80661728 48.9342218 -1.58589081 48.9465686 -2.38877869 48.95928955 C-5.62902164 48.94598287 -7.99008795 48.81914875 -10.86743164 47.26074219 C-15.32042454 42.43684317 -13.7127961 33.07245058 -13.75634766 26.83398438 C-13.77291642 25.09393955 -13.80021889 23.35396305 -13.83837891 21.61425781 C-13.89321881 19.09925214 -13.9150286 16.58583593 -13.9296875 14.0703125 C-13.95235687 13.29620026 -13.97502625 12.52208801 -13.99838257 11.72451782 C-13.98351021 7.91146608 -13.53704249 5.78874566 -11.39892578 2.60107422 C-7.57414985 0.03562245 -4.45403041 -0.09510468 0 0 Z " fill="#D2D2D2" transform="translate(109.40625,247.40625)"/>
<path d="M0 0 C7.47584448 -0.06960318 14.95161873 -0.12286342 22.42772198 -0.15543652 C25.8994411 -0.17107243 29.37093803 -0.19227212 32.8425293 -0.22631836 C36.83644712 -0.26524063 40.83013263 -0.27972629 44.82421875 -0.29296875 C46.06709152 -0.30845261 47.30996429 -0.32393646 48.59049988 -0.33988953 C49.75132584 -0.34011612 50.91215179 -0.34034271 52.1081543 -0.34057617 C53.63704536 -0.35056892 53.63704536 -0.35056892 55.19682312 -0.36076355 C58.47230388 0.06078461 60.34857323 1.06215722 63 3 C64.32953792 5.65907584 64.11986031 7.66565368 64.11352539 10.64306641 C64.11341209 12.41467636 64.11341209 12.41467636 64.11329651 14.22207642 C64.10813522 15.50230682 64.10297394 16.78253723 64.09765625 18.1015625 C64.0962413 19.40829926 64.09482635 20.71503601 64.09336853 22.06137085 C64.08954894 25.53676258 64.07972342 29.01211257 64.06866455 32.48748779 C64.05843843 36.03331945 64.05386833 39.57915785 64.04882812 43.125 C64.03810066 50.08335049 64.02103092 57.04167324 64 64 C59.46942518 60.20497401 55.14295723 56.28897393 50.97290039 52.10229492 C50.13743683 51.26945984 50.13743683 51.26945984 49.28509521 50.4197998 C47.47011552 48.60917299 45.65876047 46.79497142 43.84765625 44.98046875 C42.5798528 43.71333965 41.311901 42.44635897 40.04380798 41.17951965 C37.40054378 38.53772301 34.7590803 35.89414263 32.11889648 33.24926758 C28.72703432 29.8516735 25.33065516 26.45863565 21.93294621 23.06688976 C19.32074227 20.45828706 16.71090946 17.84732268 14.10180473 15.2356205 C12.84935432 13.98250141 11.59615626 12.73012912 10.34221077 11.47850609 C8.59949644 9.73831485 6.85999162 7.99497937 5.12133789 6.25073242 C4.59934311 5.73076187 4.07734833 5.21079132 3.53953552 4.67506409 C0 1.11426964 0 1.11426964 0 0 Z " fill="#D2D2D2" transform="translate(64,416)"/>
<path d="M0 0 C1.70079964 -0.00832352 1.70079964 -0.00832352 3.43595886 -0.01681519 C7.18364735 -0.02862501 10.93013045 -0.00432053 14.67773438 0.02148438 C17.28177841 0.02319516 19.88582417 0.02313013 22.48986816 0.0213623 C27.94733302 0.02141584 33.40445119 0.04114814 38.86181641 0.07324219 C45.16545045 0.11013354 51.46863051 0.11891739 57.77235842 0.11194468 C63.84380714 0.10563272 69.91507565 0.11662028 75.98649597 0.13591003 C78.56690207 0.14294482 81.14732188 0.14606399 83.72773743 0.1452179 C87.33306708 0.14701417 90.93775069 0.16838292 94.54296875 0.1953125 C95.61117355 0.1923819 96.67937836 0.18945129 97.779953 0.18643188 C106.90331966 0.29165284 106.90331966 0.29165284 110.77148438 3.61523438 C112.17606174 6.42438911 112.02043595 8.50333972 111.77148438 11.61523438 C109.99164033 14.75115008 109.24840231 15.45626173 105.77148438 16.61523438 C104.18415184 16.7148891 102.59301778 16.75875149 101.00259399 16.76913452 C100.02123978 16.77773499 99.03988556 16.78633545 98.02879333 16.79519653 C96.4157003 16.80158646 96.4157003 16.80158646 94.77001953 16.80810547 C93.06965797 16.8203717 93.06965797 16.8203717 91.33494568 16.83288574 C87.57681815 16.8577367 83.81872832 16.87425294 80.06054688 16.88867188 C78.77872906 16.89399555 77.49691124 16.89931923 76.17625046 16.90480423 C70.79065111 16.92603021 65.40506406 16.94516107 60.01943398 16.95642662 C52.30516086 16.97267077 44.59139096 17.0058691 36.87730753 17.06282747 C30.7963042 17.10619564 24.71549835 17.12217123 18.63434982 17.12855911 C16.04831734 17.13528837 13.46229267 17.15055346 10.87636185 17.17444992 C7.26109492 17.20595872 3.64710564 17.20615919 0.03173828 17.19873047 C-1.03960861 17.2151358 -2.11095551 17.23154114 -3.21476746 17.2484436 C-10.45765215 17.18739986 -10.45765215 17.18739986 -14.39321899 14.26626587 C-16.22851562 11.61523438 -16.22851562 11.61523438 -16.85351562 8.61523438 C-14.95432095 -0.50090008 -7.66739512 -0.09520135 0 0 Z " fill="#0B5078" transform="translate(192.228515625,359.384765625)"/>
<path d="M0 0 C1.79663086 1.25268555 1.79663086 1.25268555 3.65234375 2.94921875 C4.3484375 3.58456543 5.04453125 4.21991211 5.76171875 4.87451172 C9.71434242 8.62795213 13.592732 12.4488388 17.4375 16.3125 C18.25154297 17.12267578 19.06558594 17.93285156 19.90429688 18.76757812 C20.67708984 19.54166016 21.44988281 20.31574219 22.24609375 21.11328125 C22.94404053 21.81235596 23.6419873 22.51143066 24.36108398 23.23168945 C27.09756985 26.1842244 27.52786645 28.78003461 27.46704102 32.80712891 C26.8886663 35.52273876 25.90311735 36.67766438 24.02734375 38.7109375 C23.39231934 39.4023584 22.75729492 40.0937793 22.10302734 40.80615234 C18.47475643 44.59111199 14.79059512 48.31343464 11.0625 52 C10.28326172 52.77472656 9.50402344 53.54945313 8.70117188 54.34765625 C6.8030758 56.23410757 4.90266851 58.11816245 3 60 C-3.26472739 54.68888403 -9.1056238 49.26283871 -14.4375 43 C-17.40336865 39.55533641 -20.60354376 36.61212664 -24.06640625 33.67578125 C-26.85985815 31.2547896 -29.41938424 28.64513116 -32 26 C-30.44178546 22.2636303 -28.13418702 19.89003319 -25.28125 17.05078125 C-24.34925781 16.12072266 -23.41726563 15.19066406 -22.45703125 14.23242188 C-21.97186035 13.75345459 -21.48668945 13.2744873 -20.98681641 12.78100586 C-19.49971045 11.31221402 -18.02082042 9.83551896 -16.54296875 8.35742188 C-7.19854237 -0.92884418 -7.19854237 -0.92884418 0 0 Z " fill="#C80A4F" transform="translate(421,294)"/>
<path d="M0 0 C4.56030824 3.80475422 8.85089392 7.74969621 13 12 C11.68196981 14.91564169 10.26408199 16.98423977 8.00158691 19.23892212 C7.38749466 19.8557637 6.7734024 20.47260529 6.14070129 21.10813904 C5.46843002 21.77321976 4.79615875 22.43830048 4.10351562 23.12353516 C3.39442551 23.83291733 2.68533539 24.5422995 1.95475769 25.2731781 C-0.39003535 27.61657802 -2.74183407 29.95281323 -5.09375 32.2890625 C-6.72321412 33.91479566 -8.35223661 35.54097157 -9.98083496 37.16757202 C-14.26974883 41.44884959 -18.56463294 45.72408914 -22.86077881 49.99810791 C-27.23500492 54.35189985 -31.60359979 58.7113339 -35.97265625 63.0703125 C-44.18316412 71.26031953 -52.39918579 79.44476821 -60.61942291 87.62500954 C-61.74763161 88.74865284 -62.87407169 89.87407169 -64 91 C-65.06345325 89.79250553 -66.12570461 88.58395254 -67.1875 87.375 C-67.77917969 86.70210938 -68.37085938 86.02921875 -68.98046875 85.3359375 C-71.35721433 82.58681979 -73.67614562 79.79397899 -76 77 C-75.12160965 76.12383026 -74.2432193 75.24766052 -73.33821106 74.34494019 C-65.05194701 66.07896655 -56.76833891 57.81033949 -48.48730946 49.53912163 C-44.23009127 45.28711727 -39.97194982 41.03604624 -35.71166992 36.78710938 C-31.59868089 32.68500251 -27.48815452 28.58044266 -23.3793087 24.47418594 C-21.81294511 22.90966699 -20.24570305 21.34602703 -18.67756081 19.78329086 C-16.47776179 17.59077297 -14.2811348 15.39512275 -12.08520508 13.19873047 C-11.11631599 12.2352343 -11.11631599 12.2352343 -10.12785339 11.25227356 C-6.5343411 7.65058643 -3.19496662 3.96048933 0 0 Z " fill="#00A0C8" transform="translate(388,319)"/>
<path d="M0 0 C3.12578143 1.6720747 5.39281175 3.7856235 7 7 C7.10546854 8.6378677 7.14874002 10.27992941 7.16113281 11.92114258 C7.17074036 12.94593216 7.1803479 13.97072174 7.19024658 15.02656555 C7.19449646 16.13799423 7.19874634 17.24942291 7.203125 18.39453125 C7.20882507 19.53403732 7.21452515 20.6735434 7.22039795 21.84757996 C7.22985769 24.26271636 7.23638578 26.67786572 7.24023438 29.09301758 C7.24993266 32.7868507 7.28094464 36.48012586 7.3125 40.17382812 C7.31903061 42.51822586 7.32428085 44.86262757 7.328125 47.20703125 C7.3404718 48.31238724 7.3528186 49.41774323 7.36553955 50.55659485 C7.36253845 51.59084091 7.35953735 52.62508698 7.35644531 53.69067383 C7.36009094 54.59731277 7.36373657 55.50395172 7.36749268 56.43806458 C6.74450921 60.7811264 4.34260392 64.21449673 1 67 C-2.70602135 68.23534045 -5.09753614 68.45528745 -9 68 C-12.82209946 65.61307623 -15.56170311 63.31489068 -17 59 C-17.11204007 57.32958541 -17.16892458 55.65519772 -17.19287109 53.98120117 C-17.20893402 52.95971481 -17.22499695 51.93822845 -17.24154663 50.88578796 C-17.2860649 46.21935749 -17.32705275 41.55306778 -17.35009766 36.88647461 C-17.36666371 34.42576647 -17.39396189 31.96510657 -17.43212891 29.50463867 C-17.48690148 25.95466172 -17.50877244 22.40581137 -17.5234375 18.85546875 C-17.54610687 17.7584111 -17.56877625 16.66135345 -17.59213257 15.53105164 C-17.56856922 7.00748768 -17.56856922 7.00748768 -14.59228516 3.3215332 C-10.08862373 -0.71174203 -5.88746523 -0.82947443 0 0 Z " fill="#F9B300" transform="translate(353,32)"/>
<path d="M0 0 C3.12578143 1.6720747 5.39281175 3.7856235 7 7 C7.10546854 8.6378677 7.14874002 10.27992941 7.16113281 11.92114258 C7.17074036 12.94593216 7.1803479 13.97072174 7.19024658 15.02656555 C7.19449646 16.13799423 7.19874634 17.24942291 7.203125 18.39453125 C7.20882507 19.53403732 7.21452515 20.6735434 7.22039795 21.84757996 C7.22985769 24.26271636 7.23638578 26.67786572 7.24023438 29.09301758 C7.24993266 32.7868507 7.28094464 36.48012586 7.3125 40.17382812 C7.31903061 42.51822586 7.32428085 44.86262757 7.328125 47.20703125 C7.3404718 48.31238724 7.3528186 49.41774323 7.36553955 50.55659485 C7.36253845 51.59084091 7.35953735 52.62508698 7.35644531 53.69067383 C7.36009094 54.59731277 7.36373657 55.50395172 7.36749268 56.43806458 C6.74450921 60.7811264 4.34260392 64.21449673 1 67 C-2.70602135 68.23534045 -5.09753614 68.45528745 -9 68 C-12.82209946 65.61307623 -15.56170311 63.31489068 -17 59 C-17.11204007 57.32958541 -17.16892458 55.65519772 -17.19287109 53.98120117 C-17.20893402 52.95971481 -17.22499695 51.93822845 -17.24154663 50.88578796 C-17.2860649 46.21935749 -17.32705275 41.55306778 -17.35009766 36.88647461 C-17.36666371 34.42576647 -17.39396189 31.96510657 -17.43212891 29.50463867 C-17.48690148 25.95466172 -17.50877244 22.40581137 -17.5234375 18.85546875 C-17.54610687 17.7584111 -17.56877625 16.66135345 -17.59213257 15.53105164 C-17.56856922 7.00748768 -17.56856922 7.00748768 -14.59228516 3.3215332 C-10.08862373 -0.71174203 -5.88746523 -0.82947443 0 0 Z " fill="#F9B300" transform="translate(297,32)"/>
<path d="M0 0 C3.12578143 1.6720747 5.39281175 3.7856235 7 7 C7.10546854 8.6378677 7.14874002 10.27992941 7.16113281 11.92114258 C7.17074036 12.94593216 7.1803479 13.97072174 7.19024658 15.02656555 C7.19449646 16.13799423 7.19874634 17.24942291 7.203125 18.39453125 C7.20882507 19.53403732 7.21452515 20.6735434 7.22039795 21.84757996 C7.22985769 24.26271636 7.23638578 26.67786572 7.24023438 29.09301758 C7.24993266 32.7868507 7.28094464 36.48012586 7.3125 40.17382812 C7.31903061 42.51822586 7.32428085 44.86262757 7.328125 47.20703125 C7.3404718 48.31238724 7.3528186 49.41774323 7.36553955 50.55659485 C7.36253845 51.59084091 7.35953735 52.62508698 7.35644531 53.69067383 C7.36009094 54.59731277 7.36373657 55.50395172 7.36749268 56.43806458 C6.74450921 60.7811264 4.34260392 64.21449673 1 67 C-2.70602135 68.23534045 -5.09753614 68.45528745 -9 68 C-12.82209946 65.61307623 -15.56170311 63.31489068 -17 59 C-17.11204007 57.32958541 -17.16892458 55.65519772 -17.19287109 53.98120117 C-17.20893402 52.95971481 -17.22499695 51.93822845 -17.24154663 50.88578796 C-17.2860649 46.21935749 -17.32705275 41.55306778 -17.35009766 36.88647461 C-17.36666371 34.42576647 -17.39396189 31.96510657 -17.43212891 29.50463867 C-17.48690148 25.95466172 -17.50877244 22.40581137 -17.5234375 18.85546875 C-17.54610687 17.7584111 -17.56877625 16.66135345 -17.59213257 15.53105164 C-17.56856922 7.00748768 -17.56856922 7.00748768 -14.59228516 3.3215332 C-10.08862373 -0.71174203 -5.88746523 -0.82947443 0 0 Z " fill="#F9B300" transform="translate(161,32)"/>
<path d="M0 0 C3.12578143 1.6720747 5.39281175 3.7856235 7 7 C7.10546854 8.6378677 7.14874002 10.27992941 7.16113281 11.92114258 C7.17074036 12.94593216 7.1803479 13.97072174 7.19024658 15.02656555 C7.19449646 16.13799423 7.19874634 17.24942291 7.203125 18.39453125 C7.20882507 19.53403732 7.21452515 20.6735434 7.22039795 21.84757996 C7.22985769 24.26271636 7.23638578 26.67786572 7.24023438 29.09301758 C7.24993266 32.7868507 7.28094464 36.48012586 7.3125 40.17382812 C7.31903061 42.51822586 7.32428085 44.86262757 7.328125 47.20703125 C7.3404718 48.31238724 7.3528186 49.41774323 7.36553955 50.55659485 C7.36253845 51.59084091 7.35953735 52.62508698 7.35644531 53.69067383 C7.36009094 54.59731277 7.36373657 55.50395172 7.36749268 56.43806458 C6.74450921 60.7811264 4.34260392 64.21449673 1 67 C-2.70602135 68.23534045 -5.09753614 68.45528745 -9 68 C-12.82209946 65.61307623 -15.56170311 63.31489068 -17 59 C-17.11204007 57.32958541 -17.16892458 55.65519772 -17.19287109 53.98120117 C-17.20893402 52.95971481 -17.22499695 51.93822845 -17.24154663 50.88578796 C-17.2860649 46.21935749 -17.32705275 41.55306778 -17.35009766 36.88647461 C-17.36666371 34.42576647 -17.39396189 31.96510657 -17.43212891 29.50463867 C-17.48690148 25.95466172 -17.50877244 22.40581137 -17.5234375 18.85546875 C-17.54610687 17.7584111 -17.56877625 16.66135345 -17.59213257 15.53105164 C-17.56856922 7.00748768 -17.56856922 7.00748768 -14.59228516 3.3215332 C-10.08862373 -0.71174203 -5.88746523 -0.82947443 0 0 Z " fill="#F9B300" transform="translate(105,32)"/>
<path d="M0 0 C3.76488042 1.72154788 6.15063897 3.99234114 9 7 C7.67289741 9.94209835 6.23210009 12.01614431 3.95016479 14.29034424 C3.32476807 14.9184903 2.69937134 15.54663635 2.05502319 16.19381714 C1.02787704 17.21017746 1.02787704 17.21017746 -0.02001953 18.24707031 C-0.74207581 18.96941864 -1.46413208 19.69176697 -2.20806885 20.43600464 C-4.59493989 22.82148279 -6.9888162 25.19979939 -9.3828125 27.578125 C-11.03948779 29.23107002 -12.69572195 30.88445727 -14.35153198 32.53826904 C-18.71025917 36.88936088 -23.07495924 41.23441313 -27.44091797 45.57824707 C-31.89521505 50.01208371 -36.34385418 54.45158909 -40.79296875 58.890625 C-49.52310855 67.5993166 -58.25956694 76.30164008 -67 85 C-70.40212299 83.38617243 -73.10324519 81.41396234 -76 79 C-75.41597407 75.67259618 -74.41413741 74.04144557 -72.03245544 71.67169189 C-71.40001923 71.03513168 -70.76758301 70.39857147 -70.11598206 69.74272156 C-69.41827194 69.05579727 -68.72056183 68.36887299 -68.00170898 67.66113281 C-67.27004517 66.92903091 -66.53838135 66.19692902 -65.7845459 65.44264221 C-63.36210427 63.02229216 -60.92920623 60.61274381 -58.49609375 58.203125 C-56.81535195 56.52797781 -55.13527087 54.85216746 -53.45582581 53.17572021 C-49.03186673 48.76322041 -44.59897268 44.3598033 -40.16418457 39.95819092 C-35.64115548 35.46583913 -31.12659756 30.96499233 -26.61132812 26.46484375 C-17.74917631 17.63487522 -8.87785045 8.81418317 0 0 Z " fill="#0A5179" transform="translate(401,332)"/>
<path d="M0 0 C3.49929198 1.64443342 5.73398393 3.52464547 8.4375 6.3125 C9.22253906 7.11558594 10.00757813 7.91867187 10.81640625 8.74609375 C11.53699219 9.48988281 12.25757813 10.23367188 13 11 C13.95598161 11.9606793 14.91374939 12.91959285 15.875 13.875 C16.57625 14.57625 17.2775 15.2775 18 16 C18.598125 16.556875 19.19625 17.11375 19.8125 17.6875 C21 19 21 19 21 21 C21.57105469 21.25007813 22.14210938 21.50015625 22.73046875 21.7578125 C25.32526745 23.17802934 27.1895481 24.81802649 29.3125 26.875 C30.03050781 27.55304688 30.74851562 28.23109375 31.48828125 28.9296875 C33 31 33 31 32.82611084 33.00822449 C32 35 32 35 30.39483643 36.09516907 C29.70154236 36.37354111 29.00824829 36.65191315 28.29394531 36.9387207 C27.50932922 37.2619783 26.72471313 37.5852359 25.9163208 37.91828918 C25.06221619 38.25076157 24.20811157 38.58323395 23.328125 38.92578125 C22.45355652 39.27762985 21.57898804 39.62947845 20.67791748 39.99198914 C18.82473684 40.73308185 16.96844275 41.46642862 15.109375 42.19262695 C12.26709099 43.30580632 9.43814141 44.44867284 6.609375 45.59570312 C4.80801221 46.31171128 3.00594994 47.02596263 1.203125 47.73828125 C-0.06588654 48.25217155 -0.06588654 48.25217155 -1.36053467 48.77644348 C-8.73398763 51.62045103 -8.73398763 51.62045103 -13 50 C-14.8125 48.875 -14.8125 48.875 -16 47 C-16.60521597 40.74559727 -14.85600535 36.21320574 -12.5 30.56640625 C-12.14486328 29.68846909 -11.78972656 28.81053192 -11.42382812 27.9059906 C-10.29386177 25.12006315 -9.14724695 22.34134964 -8 19.5625 C-7.22805506 17.66777021 -6.4572096 15.77259209 -5.6875 13.87695312 C-3.80435599 9.2460147 -1.90625715 4.62146951 0 0 Z " fill="#EBC7A0" transform="translate(311,397)"/>
<path d="M0 0 C3.21142855 2.37366458 4.71584605 3.93442268 5.75 7.8125 C3.74651649 16.32730493 -6.56295447 23.71721461 -12.67211914 29.80249023 C-14.33012955 31.45507182 -15.98263976 33.11302199 -17.63476562 34.77148438 C-18.68978311 35.82584219 -19.74511014 36.87989038 -20.80078125 37.93359375 C-21.29347 38.42830673 -21.78615875 38.92301971 -22.29377747 39.432724 C-25.05606403 42.17598902 -26.7580213 43.76343263 -30.625 44.5 C-35.78729781 43.73521514 -38.38564868 40.58742878 -42 37 C-42.74378906 36.28199219 -43.48757812 35.56398437 -44.25390625 34.82421875 C-50.81247428 28.40644287 -50.81247428 28.40644287 -51.375 24.1875 C-51 21 -51 21 -48.875 18.125 C-46 16 -46 16 -43.1875 15.25 C-38.34791483 16.38872592 -35.46107632 19.5564926 -32 23 C-28.34968275 21.46728453 -26.06060249 19.27846123 -23.3046875 16.46484375 C-21.98404297 15.12776367 -21.98404297 15.12776367 -20.63671875 13.76367188 C-19.26966797 12.3647168 -19.26966797 12.3647168 -17.875 10.9375 C-16.06210385 9.09027833 -14.24710642 7.24511579 -12.4296875 5.40234375 C-11.22675049 4.17245728 -11.22675049 4.17245728 -9.99951172 2.91772461 C-6.73316818 -0.21501391 -4.48346025 -0.52746591 0 0 Z " fill="#0F537A" transform="translate(155,160)"/>
<path d="M0 0 C1.34850966 0.00171254 2.69702264 0.00164396 4.04553223 -0.00012207 C6.86678071 0.00152842 9.68723193 0.02017387 12.50830078 0.05175781 C16.11646157 0.09143588 19.72357924 0.09580167 23.33191681 0.08829498 C26.11502564 0.08521887 28.89790191 0.09736833 31.68095398 0.11442566 C33.65564626 0.12483213 35.63038286 0.1253027 37.60510254 0.12561035 C38.80985229 0.14152222 40.01460205 0.15743408 41.25585938 0.17382812 C42.84207092 0.18645691 42.84207092 0.18645691 44.46032715 0.19934082 C47.76530306 0.65141216 49.6672448 1.63267651 52.34375 3.59375 C53.74832737 6.40290474 53.59270157 8.48185534 53.34375 11.59375 C51.56390595 14.7296657 50.82066793 15.43477736 47.34375 16.59375 C45.39238478 16.70738041 43.43743767 16.76295063 41.48291016 16.78662109 C39.67555893 16.81071548 39.67555893 16.81071548 37.83169556 16.83529663 C32.33115857 16.87971854 26.83075176 16.92123295 21.33007812 16.94384766 C18.4257869 16.95719436 15.52219708 16.98506326 12.61816406 17.02587891 C9.10681548 17.0752245 5.59610357 17.09997009 2.08442307 17.10707474 C0.10069895 17.11703493 -1.88285533 17.15127084 -3.86630249 17.18588257 C-13.88239165 17.16231412 -13.88239165 17.16231412 -16.97509766 14.24853516 C-19.06403107 10.94980411 -19.45425877 9.42419211 -18.65625 5.59375 C-14.24329514 -1.34527636 -7.53598437 -0.09557055 0 0 Z " fill="#0B5178" transform="translate(194.65625,327.40625)"/>
<path d="M0 0 C1.34850966 0.00171254 2.69702264 0.00164396 4.04553223 -0.00012207 C6.86678071 0.00152842 9.68723193 0.02017387 12.50830078 0.05175781 C16.11646157 0.09143588 19.72357924 0.09580167 23.33191681 0.08829498 C26.11502564 0.08521887 28.89790191 0.09736833 31.68095398 0.11442566 C33.65564626 0.12483213 35.63038286 0.1253027 37.60510254 0.12561035 C38.80985229 0.14152222 40.01460205 0.15743408 41.25585938 0.17382812 C42.84207092 0.18645691 42.84207092 0.18645691 44.46032715 0.19934082 C47.76530306 0.65141216 49.6672448 1.63267651 52.34375 3.59375 C53.74832737 6.40290474 53.59270157 8.48185534 53.34375 11.59375 C51.56390595 14.7296657 50.82066793 15.43477736 47.34375 16.59375 C45.39238478 16.70738041 43.43743767 16.76295063 41.48291016 16.78662109 C39.67555893 16.81071548 39.67555893 16.81071548 37.83169556 16.83529663 C32.33115857 16.87971854 26.83075176 16.92123295 21.33007812 16.94384766 C18.4257869 16.95719436 15.52219708 16.98506326 12.61816406 17.02587891 C9.10681548 17.0752245 5.59610357 17.09997009 2.08442307 17.10707474 C0.10069895 17.11703493 -1.88285533 17.15127084 -3.86630249 17.18588257 C-13.88239165 17.16231412 -13.88239165 17.16231412 -16.97509766 14.24853516 C-19.06403107 10.94980411 -19.45425877 9.42419211 -18.65625 5.59375 C-14.24329514 -1.34527636 -7.53598437 -0.09557055 0 0 Z " fill="#0B5178" transform="translate(194.65625,247.40625)"/>
<path d="M0 0 C1.34850966 0.00171254 2.69702264 0.00164396 4.04553223 -0.00012207 C6.86678071 0.00152842 9.68723193 0.02017387 12.50830078 0.05175781 C16.11646157 0.09143588 19.72357924 0.09580167 23.33191681 0.08829498 C26.11502564 0.08521887 28.89790191 0.09736833 31.68095398 0.11442566 C33.65564626 0.12483213 35.63038286 0.1253027 37.60510254 0.12561035 C38.80985229 0.14152222 40.01460205 0.15743408 41.25585938 0.17382812 C42.84207092 0.18645691 42.84207092 0.18645691 44.46032715 0.19934082 C47.76530306 0.65141216 49.6672448 1.63267651 52.34375 3.59375 C53.74832737 6.40290474 53.59270157 8.48185534 53.34375 11.59375 C51.56390595 14.7296657 50.82066793 15.43477736 47.34375 16.59375 C45.39238478 16.70738041 43.43743767 16.76295063 41.48291016 16.78662109 C39.67555893 16.81071548 39.67555893 16.81071548 37.83169556 16.83529663 C32.33115857 16.87971854 26.83075176 16.92123295 21.33007812 16.94384766 C18.4257869 16.95719436 15.52219708 16.98506326 12.61816406 17.02587891 C9.10681548 17.0752245 5.59610357 17.09997009 2.08442307 17.10707474 C0.10069895 17.11703493 -1.88285533 17.15127084 -3.86630249 17.18588257 C-13.88239165 17.16231412 -13.88239165 17.16231412 -16.97509766 14.24853516 C-19.06403107 10.94980411 -19.45425877 9.42419211 -18.65625 5.59375 C-14.24329514 -1.34527636 -7.53598437 -0.09557055 0 0 Z " fill="#0B5178" transform="translate(194.65625,167.40625)"/>
<path d="M0 0 C2.99943905 1.34572887 5.08076179 2.83537101 7.39160156 5.16455078 C8.35214447 6.12532028 8.35214447 6.12532028 9.33209229 7.10549927 C10.01140808 7.79513763 10.69072388 8.484776 11.390625 9.1953125 C12.09523865 9.90275604 12.79985229 10.61019958 13.52581787 11.33908081 C15.7719539 13.59639862 18.01103009 15.86057633 20.25 18.125 C21.77297717 19.65800953 23.29640939 21.19056715 24.8203125 22.72265625 C28.55216815 26.47654573 32.27825351 30.23608914 36 34 C35.0735288 35.10816566 34.14304151 36.21297428 33.2109375 37.31640625 C32.69321777 37.93201416 32.17549805 38.54762207 31.64208984 39.18188477 C29.30683511 41.76746936 26.73692763 43.84955686 24 46 C11.22289894 33.39582212 11.22289894 33.39582212 7.1875 28.625 C4.36223692 25.29622469 1.26004751 22.49645842 -2.06640625 19.67578125 C-4.85985815 17.2547896 -7.41938424 14.64513116 -10 12 C-8.52278578 8.54798361 -6.56205999 6.35038064 -3.875 3.75 C-3.15054687 3.04359375 -2.42609375 2.3371875 -1.6796875 1.609375 C-1.12539063 1.07828125 -0.57109375 0.5471875 0 0 Z " fill="#F6B302" transform="translate(399,308)"/>
<path d="M0 0 C0.52083553 3.9704599 0.83320421 6.61617496 -1.269104 10.10778809 C-3.17431629 12.4011943 -5.17214241 14.54102897 -7.2578125 16.671875 C-8.4016465 17.87309746 -8.4016465 17.87309746 -9.56858826 19.09858704 C-12.05812217 21.67975253 -14.58484618 24.21868284 -17.125 26.75 C-17.98068573 27.61205048 -18.83637146 28.47410095 -19.71798706 29.36227417 C-33.50549686 43.12011988 -45.84108822 52.12593664 -64.74658203 57.07080078 C-69.36648839 58.39027876 -73.72815241 60.25197213 -78.14038086 62.14233398 C-81.28306594 63.08489803 -82.90263971 62.97258801 -86 62 C-87.8125 60.9375 -87.8125 60.9375 -89 59 C-89.24713438 56.28152187 -89.13479526 53.7408369 -89 51 C-88.67 51.66 -88.34 52.32 -88 53 C-81.70651523 54.76135002 -77.51829135 53.13255965 -71.63671875 50.66796875 C-70.76352493 50.31616043 -69.89033112 49.96435211 -68.99067688 49.60188293 C-67.15464944 48.85869644 -65.32176794 48.1076956 -63.49194336 47.34936523 C-60.68547807 46.18666233 -57.87036376 45.04745477 -55.05273438 43.91210938 C-53.26768249 43.18623877 -51.48315778 42.45907008 -49.69921875 41.73046875 C-48.85654953 41.3876738 -48.01388031 41.04487885 -47.14567566 40.69169617 C-46.36759048 40.36828751 -45.58950531 40.04487885 -44.7878418 39.71166992 C-44.10280075 39.42885666 -43.4177597 39.1460434 -42.71195984 38.85466003 C-40.80373398 38.01494266 -40.80373398 38.01494266 -39 36 C-38.3721611 35.69780548 -37.7443222 35.39561096 -37.09745789 35.08425903 C-34.76061649 33.87625318 -33.28639471 32.52082268 -31.44067383 30.65185547 C-30.76349808 29.97130096 -30.08632233 29.29074646 -29.3886261 28.58956909 C-28.6686998 27.85618317 -27.9487735 27.12279724 -27.20703125 26.3671875 C-26.46039719 25.61535187 -25.71376312 24.86351624 -24.94450378 24.08889771 C-22.56237416 21.68896135 -20.18704387 19.28244027 -17.8125 16.875 C-15.42637445 14.46130997 -13.03882732 12.04907044 -10.64836121 9.63967896 C-9.16101036 8.14001298 -7.67633966 6.6376835 -6.1945343 5.13253784 C-5.52681503 4.45828766 -4.85909576 3.78403748 -4.17114258 3.08935547 C-3.2865612 2.19239456 -3.2865612 2.19239456 -2.3841095 1.27731323 C-1 0 -1 0 0 0 Z " fill="#D0D1D1" transform="translate(384,393)"/>
<path d="M0 0 C4.71380794 3.85675195 9.10825067 7.9718936 13.4375 12.25 C13.98180664 12.78141602 14.52611328 13.31283203 15.08691406 13.86035156 C16.43127793 15.20129248 17.72074448 16.59681004 19 18 C19 18.66 19 19.32 19 20 C16.11255688 21.20866585 13.21400173 22.38802937 10.3125 23.5625 C9.49587891 23.90474609 8.67925781 24.24699219 7.83789062 24.59960938 C0.24761377 27.64186609 0.24761377 27.64186609 -4 26 C-5.8125 24.875 -5.8125 24.875 -7 23 C-7.47220395 17.2763157 -6.28069482 13.2618722 -4.0625 8.125 C-3.78470703 7.44953125 -3.50691406 6.7740625 -3.22070312 6.078125 C-1.1796875 1.1796875 -1.1796875 1.1796875 0 0 Z " fill="#10547A" transform="translate(302,421)"/>
<path d="M0 0 C0.5775 0.763125 1.155 1.52625 1.75 2.3125 C4.92113269 6.10024182 6.41662915 7.82726863 11.4375 8.375 C16.63132955 7.8282811 18.93707028 6.2352967 22.3125 2.3125 C22.869375 1.549375 23.42625 0.78625 24 0 C24.49303103 4.02642005 24.86992855 7.5420642 22.734375 11.12109375 C19.41533738 14.99598961 17.52737648 16.81878584 12.3125 17.4375 C7.83372452 17.39663526 5.58972333 15.62763198 2.34765625 12.703125 C-0.64328638 8.92326706 -0.0891924 4.63800478 0 0 Z " fill="#0583A7" transform="translate(336,91)"/>
<path d="M0 0 C0.5775 0.763125 1.155 1.52625 1.75 2.3125 C4.92113269 6.10024182 6.41662915 7.82726863 11.4375 8.375 C16.63132955 7.8282811 18.93707028 6.2352967 22.3125 2.3125 C22.869375 1.549375 23.42625 0.78625 24 0 C24.49303103 4.02642005 24.86992855 7.5420642 22.734375 11.12109375 C19.41533738 14.99598961 17.52737648 16.81878584 12.3125 17.4375 C7.83372452 17.39663526 5.58972333 15.62763198 2.34765625 12.703125 C-0.64328638 8.92326706 -0.0891924 4.63800478 0 0 Z " fill="#0583A7" transform="translate(280,91)"/>
<path d="M0 0 C0.5775 0.763125 1.155 1.52625 1.75 2.3125 C4.92113269 6.10024182 6.41662915 7.82726863 11.4375 8.375 C16.63132955 7.8282811 18.93707028 6.2352967 22.3125 2.3125 C22.869375 1.549375 23.42625 0.78625 24 0 C24.49303103 4.02642005 24.86992855 7.5420642 22.734375 11.12109375 C19.41533738 14.99598961 17.52737648 16.81878584 12.3125 17.4375 C7.83372452 17.39663526 5.58972333 15.62763198 2.34765625 12.703125 C-0.64328638 8.92326706 -0.0891924 4.63800478 0 0 Z " fill="#0583A7" transform="translate(144,91)"/>
<path d="M0 0 C0.5775 0.763125 1.155 1.52625 1.75 2.3125 C4.92113269 6.10024182 6.41662915 7.82726863 11.4375 8.375 C16.63132955 7.8282811 18.93707028 6.2352967 22.3125 2.3125 C22.869375 1.549375 23.42625 0.78625 24 0 C24.49303103 4.02642005 24.86992855 7.5420642 22.734375 11.12109375 C19.41533738 14.99598961 17.52737648 16.81878584 12.3125 17.4375 C7.83372452 17.39663526 5.58972333 15.62763198 2.34765625 12.703125 C-0.64328638 8.92326706 -0.0891924 4.63800478 0 0 Z " fill="#0583A7" transform="translate(88,91)"/>
</svg>
